<svg xmlns="http://www.w3.org/2000/svg" xmlns:xlink="http://www.w3.org/1999/xlink" version="1.1"
    x="0px" y="0px" viewBox="0 0 100 100" enable-background="new 0 0 100 100" xml:space="preserve" fill="currentColor">
    <g>
        <path d="M50,5.046C25.173,5.046,5.046,25.172,5.046,50c0,24.827,20.127,44.954,44.954,44.954c24.828,0,44.953-20.127,44.953-44.954   C94.953,25.172,74.828,5.046,50,5.046z M92.998,45.818h-7.523v0.053c-0.764-6.625-3.338-12.697-7.219-17.71l5.33-5.329   c2.547,3.141,4.633,6.607,6.219,10.354C91.514,37.228,92.582,41.461,92.998,45.818z M93.197,50c0,0.954-0.033,1.901-0.094,2.842   H85.6c0.074-0.938,0.113-1.885,0.113-2.842c0-0.815-0.029-1.623-0.084-2.425h7.5C93.174,48.379,93.197,49.188,93.197,50z    M74.012,74.01c-3.119,3.119-6.752,5.568-10.795,7.279c-4.186,1.77-8.633,2.668-13.216,2.668c-4.585,0-9.032-0.898-13.218-2.668   c-4.043-1.711-7.675-4.16-10.794-7.279s-5.567-6.75-7.277-10.793c-1.771-4.186-2.668-8.633-2.668-13.217   c0-4.585,0.897-9.031,2.668-13.217c1.71-4.043,4.158-7.675,7.277-10.794s6.751-5.567,10.794-7.277   c4.186-1.771,8.633-2.668,13.218-2.668c4.583,0,9.031,0.897,13.216,2.668c4.043,1.71,7.676,4.158,10.795,7.277   s5.566,6.751,7.277,10.794c1.77,4.186,2.668,8.632,2.668,13.217c0,4.584-0.898,9.032-2.668,13.217   C79.578,67.26,77.131,70.891,74.012,74.01z M82.447,21.486l-5.305,5.306c-1.145-1.336-2.383-2.587-3.709-3.741l5.303-5.303   c0.615,0.551,1.221,1.118,1.809,1.707C81.205,20.113,81.836,20.792,82.447,21.486z M77.4,16.6l-5.326,5.325   c-4.99-3.931-11.057-6.557-17.684-7.369V7.022c4.283,0.43,8.445,1.492,12.424,3.174C70.652,11.82,74.199,13.966,77.4,16.6z    M52.635,6.883v7.501c-0.871-0.063-1.748-0.097-2.634-0.097c-0.887,0-1.765,0.033-2.635,0.097V6.883   C48.24,6.832,49.118,6.802,50,6.802C50.883,6.802,51.76,6.832,52.635,6.883z M45.61,7.022v7.534   c-6.627,0.812-12.692,3.438-17.685,7.369L22.6,16.6c3.202-2.634,6.748-4.78,10.586-6.404C37.164,8.514,41.327,7.452,45.61,7.022z    M19.455,19.455c0.589-0.589,1.193-1.156,1.811-1.707l5.302,5.303c-1.325,1.154-2.565,2.405-3.709,3.741l-5.306-5.307   C18.164,20.792,18.796,20.113,19.455,19.455z M16.415,22.831l5.329,5.33c-3.869,4.999-6.44,11.053-7.211,17.657h-7.53   c0.416-4.356,1.484-8.59,3.194-12.632C11.781,29.439,13.867,25.972,16.415,22.831z M14.4,52.842H6.897   C6.836,51.9,6.802,50.953,6.802,50c0-0.812,0.024-1.62,0.068-2.425h7.5c-0.054,0.802-0.083,1.609-0.083,2.425   C14.288,50.957,14.326,51.904,14.4,52.842z M7.045,54.598h7.536c0.842,6.547,3.455,12.537,7.344,17.477L16.6,77.4   c-2.633-3.203-4.78-6.748-6.403-10.586C8.542,62.9,7.489,58.809,7.045,54.598z M17.749,78.734l5.302-5.301   c1.154,1.326,2.406,2.564,3.742,3.707l-5.307,5.307c-0.694-0.611-1.372-1.244-2.031-1.902   C18.866,79.957,18.298,79.352,17.749,78.734z M22.832,83.586l5.329-5.33c4.947,3.828,10.926,6.389,17.449,7.188v7.535   c-4.283-0.43-8.446-1.492-12.424-3.176C29.44,88.219,25.972,86.133,22.832,83.586z M47.366,93.115v-7.5   c0.87,0.064,1.748,0.098,2.635,0.098c0.886,0,1.763-0.033,2.634-0.098v7.5c-0.875,0.053-1.752,0.082-2.634,0.082   C49.118,93.197,48.24,93.168,47.366,93.115z M54.391,92.979v-7.535c6.523-0.799,12.502-3.359,17.449-7.188l5.328,5.33   c-3.141,2.547-6.607,4.633-10.354,6.217C62.836,91.486,58.674,92.549,54.391,92.979z M80.545,80.545   c-0.658,0.658-1.336,1.291-2.031,1.902l-5.305-5.307c1.336-1.143,2.586-2.381,3.74-3.707l5.303,5.301   C81.701,79.352,81.135,79.957,80.545,80.545z M83.4,77.4l-5.326-5.326c3.982-5.057,6.625-11.217,7.4-17.945v0.469h7.48   c-0.443,4.211-1.496,8.303-3.15,12.217C88.18,70.652,86.033,74.197,83.4,77.4z"/><path d="M50,19.903c-16.622,0-30.098,13.475-30.098,30.097c0,16.622,13.476,30.098,30.098,30.098   c16.623,0,30.097-13.477,30.097-30.098C80.098,33.377,66.623,19.903,50,19.903z M70.041,70.039   C64.688,75.393,57.57,78.342,50,78.342c-7.57,0-14.688-2.949-20.041-8.303C24.607,64.688,21.659,57.57,21.659,50   c0-7.57,2.948-14.687,8.301-20.04C35.313,24.607,42.43,21.659,50,21.659c7.57,0,14.687,2.948,20.041,8.301   c5.352,5.354,8.301,12.47,8.301,20.04C78.342,57.57,75.393,64.688,70.041,70.039z"/></g>
</svg>