<?xml version="1.0" encoding="UTF-8" standalone="no"?>
<!-- Created with Inkscape (http://www.inkscape.org/) -->

<svg
   width="135.46666mm"
   height="69.320831mm"
   viewBox="0 0 135.46666 69.320831"
   version="1.1"
   id="svg5"
   xml:space="preserve"
   inkscape:version="1.2.2 (732a01da63, 2022-12-09)"
   sodipodi:docname="poker-table.svg"
   xmlns:inkscape="http://www.inkscape.org/namespaces/inkscape"
   xmlns:sodipodi="http://sodipodi.sourceforge.net/DTD/sodipodi-0.dtd"
   xmlns="http://www.w3.org/2000/svg"
   xmlns:svg="http://www.w3.org/2000/svg"
   xmlns:rdf="http://www.w3.org/1999/02/22-rdf-syntax-ns#"
   xmlns:cc="http://creativecommons.org/ns#"
   xmlns:dc="http://purl.org/dc/elements/1.1/"><title
     id="title181">Poker Table</title><sodipodi:namedview
     id="namedview7"
     pagecolor="#ffffff"
     bordercolor="#000000"
     borderopacity="0.25"
     inkscape:showpageshadow="2"
     inkscape:pageopacity="0.0"
     inkscape:pagecheckerboard="0"
     inkscape:deskcolor="#d1d1d1"
     inkscape:document-units="mm"
     showgrid="false"
     inkscape:zoom="0.74564394"
     inkscape:cx="6.0350521"
     inkscape:cy="272.2479"
     inkscape:window-width="1920"
     inkscape:window-height="1017"
     inkscape:window-x="1912"
     inkscape:window-y="-8"
     inkscape:window-maximized="1"
     inkscape:current-layer="layer1" /><defs
     id="defs2" /><g
     inkscape:label="Layer 1"
     inkscape:groupmode="layer"
     id="layer1"
     transform="translate(-51.492477,-77.113777)"><path
       style="fill:#000000;stroke-width:0.264583"
       d="m 81.919559,145.99631 c -0.363802,-0.0593 -1.613958,-0.29182 -2.778125,-0.51671 -14.192241,-2.74167 -25.294581,-14.63574 -27.263289,-29.20749 -0.472837,-3.49978 -0.472837,-5.49605 0,-8.99583 1.784207,-13.206137 10.786014,-24.006373 23.559122,-28.265893 4.26801,-1.423278 4.627163,-1.45232 19.304153,-1.560998 l 13.7479,-0.101798 2.1271,1.065156 c 3.09481,1.549745 5.01023,1.993191 8.60939,1.993191 3.59915,0 5.51457,-0.443446 8.60938,-1.993191 l 2.1271,-1.065156 13.7479,0.101798 c 14.67699,0.108678 15.03615,0.13772 19.30416,1.560998 12.77311,4.25952 21.77491,15.059756 23.55912,28.265893 0.47284,3.49978 0.47284,5.49605 0,8.99583 -1.78421,13.20613 -10.78601,24.00637 -23.55912,28.26589 -4.7009,1.56763 -2.08776,1.47509 -42.99479,1.52262 -20.5912,0.0239 -37.736199,-0.005 -38.100001,-0.0643 z m 77.258331,-2.83535 c 9.95362,-2.39099 17.76845,-8.57185 22.10409,-17.48245 4.35609,-8.95262 4.35609,-18.85602 0,-27.808641 -4.33646,-8.91227 -12.21931,-15.143731 -22.10409,-17.473468 -1.7257,-0.406729 -3.7243,-0.480505 -15.33175,-0.565957 l -13.34738,-0.09826 -1.26717,0.689683 c -2.0021,1.089678 -4.89816,1.969881 -7.55606,2.296517 -4.11895,0.506189 -8.9388,-0.382484 -12.4555,-2.296517 l -1.26718,-0.689683 -13.347376,0.09826 c -11.619449,0.08554 -13.604268,0.158925 -15.331748,0.566863 -9.925681,2.343907 -17.753736,8.531729 -22.104089,17.472562 -4.356091,8.952621 -4.356091,18.856021 0,27.808641 4.372728,8.98682 12.821319,15.60415 22.23638,17.41656 1.164167,0.2241 2.354792,0.45927 2.645833,0.52258 0.291042,0.0633 17.316979,0.0937 37.83542,0.0676 34.92985,-0.0445 37.43265,-0.0779 39.29062,-0.52424 z M 82.316434,140.31954 C 70.04028,138.75932 59.83659,129.02323 57.701659,116.83276 55.029383,101.57407 64.788715,87.066546 80.067476,83.585348 c 1.592336,-0.362806 3.794603,-0.476772 11.147146,-0.576858 10.461908,-0.142412 12.994018,0.08985 17.962418,1.647605 5.65387,1.772676 5.96125,1.82861 10.04877,1.82861 4.08752,0 4.39489,-0.05593 10.04876,-1.82861 4.9684,-1.557758 7.50052,-1.790017 17.96242,-1.647605 10.06458,0.137003 11.08348,0.26203 15.44449,1.89516 9.24784,3.463166 16.35828,12.04678 18.06848,21.81197 0.49671,2.83625 0.49671,7.2809 0,10.11714 -1.7102,9.76519 -8.82064,18.34881 -18.06848,21.81198 -5.16978,1.936 -2.219,1.80647 -42.39734,1.86109 -19.86583,0.027 -36.948947,-0.0568 -37.967706,-0.18629 z m 3.672705,-8.50316 c 0.544734,-3.52888 1.053597,-6.83656 1.130808,-7.35039 l 0.14038,-0.93424 -1.695403,-0.29041 c -3.319089,-0.56854 -6.768872,-2.95225 -8.127907,-5.61618 -0.408655,-0.80103 -0.714065,-1.10626 -1.026196,-1.02561 -0.244413,0.0632 -3.807785,0.87852 -7.918605,1.81193 -4.137499,0.93945 -7.474334,1.8249 -7.474479,1.98339 -5.82e-4,0.63362 2.856443,5.91154 4.006515,7.40143 4.221654,5.46906 10.505479,9.15032 17.314605,10.14343 2.94772,0.42993 2.530705,1.12947 3.650282,-6.12335 z m 32.046041,-0.99219 v -7.27604 l -14.17301,-0.0684 -14.173013,-0.0684 -1.002409,6.55071 c -0.551325,3.60289 -1.065064,6.93864 -1.141642,7.41277 l -0.139237,0.86206 15.314661,-0.0683 15.31465,-0.0683 z m 33.12746,6.50254 c -0.0808,-0.49819 -0.59848,-3.83296 -1.15029,-7.41059 l -1.00328,-6.50478 -14.29632,0.0684 -14.29632,0.0684 -0.0707,7.00732 c -0.0389,3.85402 -0.0128,7.15801 0.0578,7.34219 0.10162,0.26479 3.34883,0.33486 15.51726,0.33486 h 15.38875 z m 7.88599,-0.024 c 7.5619,-1.88766 13.91874,-7.21111 17.34713,-14.52711 0.57111,-1.21871 1.03838,-2.3267 1.03838,-2.4622 0,-0.19427 -14.91139,-3.79054 -15.67119,-3.77951 -0.10618,0.002 -0.43589,0.47879 -0.73268,1.06055 -0.7527,1.47541 -3.10334,3.70276 -4.79572,4.54418 -0.78226,0.38892 -2.16643,0.8509 -3.07593,1.02661 -0.99443,0.19212 -1.65365,0.45365 -1.65365,0.65606 0,0.18512 0.47535,3.35455 1.05634,7.04318 0.58098,3.68863 1.05723,6.85647 1.05833,7.03964 0.003,0.44189 2.24442,0.19356 5.42899,-0.6014 z m -4.33691,-17.09761 c 4.94151,-2.31702 6.89995,-8.00478 4.45173,-12.92882 -0.76101,-1.53059 -2.552,-3.35269 -4.00921,-4.07885 l -1.37192,-0.68364 h -8.93778 -8.93778 l -0.37687,-0.59532 c -0.33711,-0.53251 -0.2212,-1.42534 1.09883,-8.464167 0.81163,-4.327871 1.41022,-7.934326 1.3302,-8.014344 -0.3246,-0.324602 -5.58575,0.70377 -8.76451,1.713156 -7.79025,2.473723 -12.14696,2.473723 -19.93721,0 -2.84436,-0.903201 -8.43012,-2.047544 -8.69611,-1.781553 -0.0424,0.0424 0.56665,3.529791 1.35344,7.74976 1.54938,8.310068 1.60021,8.725968 1.10555,9.046118 -0.1819,0.11773 -4.319324,0.27359 -9.194272,0.34635 l -8.863541,0.13229 -1.53294,0.77673 c -4.130162,2.09272 -6.24692,7.18242 -4.699622,11.30013 1.064374,2.83254 2.698438,4.51807 5.499719,5.67294 l 1.526593,0.62936 33.734373,-0.0615 33.73437,-0.0614 1.48696,-0.69722 z m -85.889036,-4.29901 7.14375,-1.64095 -0.09065,-1.78252 c -0.152653,-3.00191 0.822667,-5.89294 2.804886,-8.31421 0.915697,-1.11852 0.917681,-1.12673 0.447405,-1.85208 -1.066003,-1.64421 -7.864226,-11.594537 -8.074145,-11.817854 -0.555616,-0.591079 -4.731639,3.321536 -6.80238,6.373312 -2.139977,3.153812 -3.584485,6.709752 -4.273175,10.519242 -0.367111,2.03067 -0.364004,6.6575 0.0059,8.78163 0.280283,1.6095 0.312591,1.65897 0.992188,1.51903 0.386358,-0.0796 3.917157,-0.88308 7.846219,-1.7856 z m 109.857656,-2.97206 c 0.15905,-3.85063 -0.0997,-5.93447 -1.14604,-9.22962 -1.42421,-4.485145 -4.18319,-8.648293 -7.88541,-11.898657 l -1.78864,-1.570347 -0.49295,0.649086 c -0.27113,0.356997 -2.2469,3.240039 -4.39061,6.40676 l -3.89766,5.757678 0.57125,0.72461 c 2.05883,2.61159 3.09997,5.70151 2.89766,8.59973 -0.12232,1.75215 -0.11041,1.79341 0.56761,1.96643 0.3809,0.0972 3.90723,0.91196 7.8363,1.81059 l 7.14375,1.63388 0.22069,-0.68988 c 0.12139,-0.37943 0.28521,-2.25155 0.36405,-4.16026 z M 83.831179,100.68483 c 1.405681,-0.51254 2.067673,-0.5523 9.19427,-0.5523 5.385668,0 7.679521,-0.0865 7.679521,-0.289611 0,-0.274405 -1.806462,-10.135232 -2.412366,-13.168239 l -0.283535,-1.419305 -7.978611,0.140041 c -8.457522,0.148447 -9.845981,0.318769 -13.005691,1.595408 -3.483585,1.407496 -4.137996,1.75504 -3.941433,2.093207 0.106417,0.183079 2.032219,3.051982 4.279559,6.375341 3.070464,4.540594 4.19388,6.009578 4.519807,5.910118 0.238553,-0.0728 1.115369,-0.3809 1.948479,-0.68466 z m 77.569471,-5.293069 c 2.26998,-3.335025 4.12724,-6.17375 4.12724,-6.308276 0,-0.134528 -0.92274,-0.665215 -2.05052,-1.179305 -4.96952,-2.265303 -6.03325,-2.435728 -15.27223,-2.446823 l -7.66545,-0.0092 -1.35153,7.276041 -1.35153,7.276042 8.35552,0.1323 c 7.87771,0.12472 8.42362,0.16506 9.54616,0.70531 0.65484,0.31516 1.26813,0.58305 1.36286,0.59531 0.0947,0.0123 2.0295,-2.706369 4.29948,-6.041394 z"
       id="path167"
       inkscape:label="path167" /></g><metadata
     id="metadata179"><rdf:RDF><cc:Work
         rdf:about=""><dc:title>Poker Table</dc:title></cc:Work></rdf:RDF></metadata></svg>
